<svg width="23" height="23" viewBox="0 0 23 23" fill="none" xmlns="http://www.w3.org/2000/svg">
<g id="icn bxs-star">
<path id="Vector" d="M20.1306 8.41927C20.0729 8.24946 19.9668 8.10025 19.8253 7.99006C19.6838 7.87987 19.5132 7.81353 19.3344 7.79922L14.1053 7.38371L11.8424 2.3747C11.7704 2.21337 11.6532 2.07634 11.5049 1.98016C11.3567 1.88397 11.1838 1.83274 11.0071 1.83264C10.8304 1.83254 10.6575 1.88359 10.5092 1.97961C10.3608 2.07563 10.2435 2.21253 10.1712 2.37378L7.90842 7.38371L2.67927 7.79922C2.50358 7.81314 2.33562 7.87738 2.19548 7.98425C2.05534 8.09113 1.94896 8.23612 1.88907 8.40187C1.82917 8.56762 1.8183 8.74712 1.85774 8.91889C1.89719 9.09066 1.98529 9.24743 2.1115 9.37044L5.97581 13.1375L4.60913 19.0555C4.56763 19.2347 4.58093 19.4221 4.6473 19.5936C4.71368 19.7651 4.83006 19.9127 4.98135 20.0172C5.13263 20.1217 5.31184 20.1783 5.49571 20.1797C5.67959 20.1811 5.85964 20.1272 6.0125 20.025L11.0068 16.6955L16.0012 20.025C16.1574 20.1288 16.3417 20.1822 16.5292 20.1781C16.7167 20.1739 16.8984 20.1125 17.0499 20.002C17.2015 19.8916 17.3156 19.7373 17.3768 19.5601C17.4381 19.3828 17.4436 19.1911 17.3926 19.0106L15.715 13.1403L19.8756 9.39612C20.148 9.15031 20.248 8.7669 20.1306 8.41927Z" fill="#F3CD03"/>
</g>
</svg>
